<?xml version="1.0" standalone="no"?>
<!DOCTYPE svg PUBLIC "-//W3C//DTD SVG 1.1//EN" "http://www.w3.org/Graphics/SVG/1.1/DTD/svg11.dtd">
<svg width="112" height="96" version="1.1" xmlns="http://www.w3.org/2000/svg">
  <rect width="112" height="96" fill="white" stroke="none" />
  <title>5 by 4 orthogonal maze</title>
  <g fill="#FF0000" stroke="none">
    <polygon points="80,16 96,16 96,32 80,32" />
    <polygon points="80,32 96,32 96,48 80,48" />
    <polygon points="64,32 80,32 80,48 64,48" />
    <polygon points="64,48 80,48 80,64 64,64" />
    <polygon points="64,64 80,64 80,80 64,80" />
    <polygon points="48,64 64,64 64,80 48,80" />
    <polygon points="32,64 48,64 48,80 32,80" />
    <polygon points="32,48 48,48 48,64 32,64" />
    <polygon points="16,48 32,48 32,64 16,64" />
    <polygon points="16,32 32,32 32,48 16,48" />
    <polygon points="16,16 32,16 32,32 16,32" />
    <polygon points="32,16 48,16 48,32 32,32" />
  </g>
  <g fill="none" stroke="#000000" stroke-width="3" stroke-linecap="round" stroke-linejoin="round">
    <line x1="16" y1="16" x2="16" y2="80" />
    <line x1="16" y1="16" x2="32" y2="16" />
    <line x1="16" y1="64" x2="32" y2="64" />
    <line x1="16" y1="80" x2="96" y2="80" />
    <line x1="32" y1="32" x2="32" y2="48" />
    <line x1="32" y1="32" x2="48" y2="32" />
    <line x1="32" y1="48" x2="64" y2="48" />
    <line x1="48" y1="16" x2="80" y2="16" />
    <line x1="48" y1="48" x2="48" y2="64" />
    <line x1="48" y1="64" x2="64" y2="64" />
    <line x1="64" y1="16" x2="64" y2="48" />
    <line x1="64" y1="32" x2="80" y2="32" />
    <line x1="80" y1="48" x2="80" y2="80" />
    <line x1="96" y1="16" x2="96" y2="80" />
  </g>
  <g fill="black" stroke="none" stroke-width="1">
    <text x="24" y="26" text-anchor="middle" style="font-family:Arial Narrow; font-size: xx-small;">1</text>
    <text x="40" y="26" text-anchor="middle" style="font-family:Arial Narrow; font-size: xx-small;">2</text>
    <text x="56" y="26" text-anchor="middle" style="font-family:Arial Narrow; font-size: xx-small;">3</text>
    <text x="72" y="26" text-anchor="middle" style="font-family:Arial Narrow; font-size: xx-small;">4</text>
    <text x="88" y="26" text-anchor="middle" style="font-family:Arial Narrow; font-size: xx-small;">5</text>
    <text x="24" y="42" text-anchor="middle" style="font-family:Arial Narrow; font-size: xx-small;">6</text>
    <text x="40" y="42" text-anchor="middle" style="font-family:Arial Narrow; font-size: xx-small;">7</text>
    <text x="56" y="42" text-anchor="middle" style="font-family:Arial Narrow; font-size: xx-small;">8</text>
    <text x="72" y="42" text-anchor="middle" style="font-family:Arial Narrow; font-size: xx-small;">9</text>
    <text x="88" y="42" text-anchor="middle" style="font-family:Arial Narrow; font-size: xx-small;">10</text>
    <text x="24" y="58" text-anchor="middle" style="font-family:Arial Narrow; font-size: xx-small;">11</text>
    <text x="40" y="58" text-anchor="middle" style="font-family:Arial Narrow; font-size: xx-small;">12</text>
    <text x="56" y="58" text-anchor="middle" style="font-family:Arial Narrow; font-size: xx-small;">13</text>
    <text x="72" y="58" text-anchor="middle" style="font-family:Arial Narrow; font-size: xx-small;">14</text>
    <text x="88" y="58" text-anchor="middle" style="font-family:Arial Narrow; font-size: xx-small;">15</text>
    <text x="24" y="74" text-anchor="middle" style="font-family:Arial Narrow; font-size: xx-small;">16</text>
    <text x="40" y="74" text-anchor="middle" style="font-family:Arial Narrow; font-size: xx-small;">17</text>
    <text x="56" y="74" text-anchor="middle" style="font-family:Arial Narrow; font-size: xx-small;">18</text>
    <text x="72" y="74" text-anchor="middle" style="font-family:Arial Narrow; font-size: xx-small;">19</text>
    <text x="88" y="74" text-anchor="middle" style="font-family:Arial Narrow; font-size: xx-small;">20</text>
  </g>
</svg>
