<?xml version="1.0" standalone="no"?>
<!DOCTYPE svg PUBLIC "-//W3C//DTD SVG 1.1//EN" "http://www.w3.org/Graphics/SVG/1.1/DTD/svg11.dtd">
<svg width="192" height="160" version="1.1" xmlns="http://www.w3.org/2000/svg">
  <rect width="192" height="160" fill="white" stroke="none" />
  <title>10 by 8 orthogonal maze</title>
  <g fill="red" stroke="none">
    <polygon points="160,96 176,96 176,112 160,112" />
    <polygon points="144,96 160,96 160,112 144,112" />
    <polygon points="144,112 160,112 160,128 144,128" />
    <polygon points="144,128 160,128 160,144 144,144" />
    <polygon points="128,128 144,128 144,144 128,144" />
    <polygon points="128,112 144,112 144,128 128,128" />
    <polygon points="112,112 128,112 128,128 112,128" />
    <polygon points="112,128 128,128 128,144 112,144" />
    <polygon points="96,128 112,128 112,144 96,144" />
    <polygon points="80,128 96,128 96,144 80,144" />
    <polygon points="64,128 80,128 80,144 64,144" />
    <polygon points="48,128 64,128 64,144 48,144" />
    <polygon points="32,128 48,128 48,144 32,144" />
    <polygon points="16,128 32,128 32,144 16,144" />
    <polygon points="16,112 32,112 32,128 16,128" />
    <polygon points="32,112 48,112 48,128 32,128" />
    <polygon points="32,96 48,96 48,112 32,112" />
    <polygon points="32,80 48,80 48,96 32,96" />
    <polygon points="48,80 64,80 64,96 48,96" />
    <polygon points="48,96 64,96 64,112 48,112" />
    <polygon points="48,112 64,112 64,128 48,128" />
    <polygon points="64,112 80,112 80,128 64,128" />
    <polygon points="64,96 80,96 80,112 64,112" />
    <polygon points="80,96 96,96 96,112 80,112" />
    <polygon points="96,96 112,96 112,112 96,112" />
    <polygon points="96,80 112,80 112,96 96,96" />
    <polygon points="80,80 96,80 96,96 80,96" />
    <polygon points="80,64 96,64 96,80 80,80" />
    <polygon points="80,48 96,48 96,64 80,64" />
    <polygon points="80,32 96,32 96,48 80,48" />
    <polygon points="96,32 112,32 112,48 96,48" />
    <polygon points="96,48 112,48 112,64 96,64" />
    <polygon points="96,64 112,64 112,80 96,80" />
    <polygon points="112,64 128,64 128,80 112,80" />
    <polygon points="112,48 128,48 128,64 112,64" />
    <polygon points="112,32 128,32 128,48 112,48" />
    <polygon points="128,32 144,32 144,48 128,48" />
    <polygon points="128,16 144,16 144,32 128,32" />
    <polygon points="144,16 160,16 160,32 144,32" />
    <polygon points="144,32 160,32 160,48 144,48" />
    <polygon points="160,32 176,32 176,48 160,48" />
    <polygon points="160,48 176,48 176,64 160,64" />
  </g>
  <g fill="none" stroke="#000000" stroke-width="3" stroke-linecap="round" stroke-linejoin="round">
    <line x1="16" y1="16" x2="176" y2="16" />
    <line x1="16" y1="144" x2="176" y2="144" />
    <line x1="16" y1="16" x2="16" y2="144" />
    <line x1="176" y1="16" x2="176" y2="48" />
    <line x1="176" y1="64" x2="176" y2="96" />
    <line x1="176" y1="112" x2="176" y2="144" />
    <line x1="128" y1="16" x2="128" y2="32" />
    <line x1="32" y1="32" x2="32" y2="48" />
    <line x1="32" y1="32" x2="48" y2="32" />
    <line x1="48" y1="32" x2="64" y2="32" />
    <line x1="80" y1="32" x2="80" y2="48" />
    <line x1="80" y1="32" x2="96" y2="32" />
    <line x1="96" y1="32" x2="112" y2="32" />
    <line x1="112" y1="32" x2="112" y2="48" />
    <line x1="112" y1="32" x2="128" y2="32" />
    <line x1="144" y1="32" x2="144" y2="48" />
    <line x1="160" y1="32" x2="176" y2="32" />
    <line x1="32" y1="48" x2="32" y2="64" />
    <line x1="48" y1="48" x2="64" y2="48" />
    <line x1="80" y1="48" x2="80" y2="64" />
    <line x1="64" y1="48" x2="80" y2="48" />
    <line x1="96" y1="48" x2="96" y2="64" />
    <line x1="112" y1="48" x2="112" y2="64" />
    <line x1="128" y1="48" x2="144" y2="48" />
    <line x1="160" y1="48" x2="160" y2="64" />
    <line x1="144" y1="48" x2="160" y2="48" />
    <line x1="16" y1="64" x2="32" y2="64" />
    <line x1="32" y1="64" x2="48" y2="64" />
    <line x1="48" y1="64" x2="64" y2="64" />
    <line x1="80" y1="64" x2="80" y2="80" />
    <line x1="96" y1="64" x2="96" y2="80" />
    <line x1="128" y1="64" x2="128" y2="80" />
    <line x1="128" y1="64" x2="144" y2="64" />
    <line x1="160" y1="64" x2="160" y2="80" />
    <line x1="144" y1="64" x2="160" y2="64" />
    <line x1="32" y1="80" x2="32" y2="96" />
    <line x1="32" y1="80" x2="48" y2="80" />
    <line x1="48" y1="80" x2="64" y2="80" />
    <line x1="64" y1="80" x2="64" y2="96" />
    <line x1="80" y1="80" x2="80" y2="96" />
    <line x1="96" y1="80" x2="112" y2="80" />
    <line x1="112" y1="80" x2="112" y2="96" />
    <line x1="112" y1="80" x2="128" y2="80" />
    <line x1="144" y1="80" x2="144" y2="96" />
    <line x1="32" y1="96" x2="32" y2="112" />
    <line x1="48" y1="96" x2="48" y2="112" />
    <line x1="64" y1="96" x2="64" y2="112" />
    <line x1="64" y1="96" x2="80" y2="96" />
    <line x1="80" y1="96" x2="96" y2="96" />
    <line x1="112" y1="96" x2="112" y2="112" />
    <line x1="112" y1="96" x2="128" y2="96" />
    <line x1="128" y1="96" x2="144" y2="96" />
    <line x1="144" y1="96" x2="160" y2="96" />
    <line x1="160" y1="96" x2="176" y2="96" />
    <line x1="48" y1="112" x2="48" y2="128" />
    <line x1="80" y1="112" x2="80" y2="128" />
    <line x1="80" y1="112" x2="96" y2="112" />
    <line x1="96" y1="112" x2="112" y2="112" />
    <line x1="112" y1="112" x2="128" y2="112" />
    <line x1="144" y1="112" x2="144" y2="128" />
    <line x1="128" y1="112" x2="144" y2="112" />
    <line x1="160" y1="112" x2="160" y2="128" />
    <line x1="32" y1="128" x2="48" y2="128" />
    <line x1="48" y1="128" x2="64" y2="128" />
    <line x1="64" y1="128" x2="80" y2="128" />
    <line x1="80" y1="128" x2="96" y2="128" />
    <line x1="96" y1="128" x2="112" y2="128" />
    <line x1="128" y1="128" x2="128" y2="144" />
    <line x1="160" y1="128" x2="160" y2="144" />
  </g>
  <g fill="black" stroke="none" stroke-width="1">
    <text x="24" y="26" text-anchor="middle" style="font-family:Arial Narrow; font-size: xx-small;">1</text>
    <text x="40" y="26" text-anchor="middle" style="font-family:Arial Narrow; font-size: xx-small;">2</text>
    <text x="56" y="26" text-anchor="middle" style="font-family:Arial Narrow; font-size: xx-small;">3</text>
    <text x="72" y="26" text-anchor="middle" style="font-family:Arial Narrow; font-size: xx-small;">4</text>
    <text x="88" y="26" text-anchor="middle" style="font-family:Arial Narrow; font-size: xx-small;">5</text>
    <text x="104" y="26" text-anchor="middle" style="font-family:Arial Narrow; font-size: xx-small;">6</text>
    <text x="120" y="26" text-anchor="middle" style="font-family:Arial Narrow; font-size: xx-small;">7</text>
    <text x="136" y="26" text-anchor="middle" style="font-family:Arial Narrow; font-size: xx-small;">8</text>
    <text x="152" y="26" text-anchor="middle" style="font-family:Arial Narrow; font-size: xx-small;">9</text>
    <text x="168" y="26" text-anchor="middle" style="font-family:Arial Narrow; font-size: xx-small;">10</text>
    <text x="24" y="42" text-anchor="middle" style="font-family:Arial Narrow; font-size: xx-small;">11</text>
    <text x="40" y="42" text-anchor="middle" style="font-family:Arial Narrow; font-size: xx-small;">12</text>
    <text x="56" y="42" text-anchor="middle" style="font-family:Arial Narrow; font-size: xx-small;">13</text>
    <text x="72" y="42" text-anchor="middle" style="font-family:Arial Narrow; font-size: xx-small;">14</text>
    <text x="88" y="42" text-anchor="middle" style="font-family:Arial Narrow; font-size: xx-small;">15</text>
    <text x="104" y="42" text-anchor="middle" style="font-family:Arial Narrow; font-size: xx-small;">16</text>
    <text x="120" y="42" text-anchor="middle" style="font-family:Arial Narrow; font-size: xx-small;">17</text>
    <text x="136" y="42" text-anchor="middle" style="font-family:Arial Narrow; font-size: xx-small;">18</text>
    <text x="152" y="42" text-anchor="middle" style="font-family:Arial Narrow; font-size: xx-small;">19</text>
    <text x="168" y="42" text-anchor="middle" style="font-family:Arial Narrow; font-size: xx-small;">20</text>
    <text x="24" y="58" text-anchor="middle" style="font-family:Arial Narrow; font-size: xx-small;">21</text>
    <text x="40" y="58" text-anchor="middle" style="font-family:Arial Narrow; font-size: xx-small;">22</text>
    <text x="56" y="58" text-anchor="middle" style="font-family:Arial Narrow; font-size: xx-small;">23</text>
    <text x="72" y="58" text-anchor="middle" style="font-family:Arial Narrow; font-size: xx-small;">24</text>
    <text x="88" y="58" text-anchor="middle" style="font-family:Arial Narrow; font-size: xx-small;">25</text>
    <text x="104" y="58" text-anchor="middle" style="font-family:Arial Narrow; font-size: xx-small;">26</text>
    <text x="120" y="58" text-anchor="middle" style="font-family:Arial Narrow; font-size: xx-small;">27</text>
    <text x="136" y="58" text-anchor="middle" style="font-family:Arial Narrow; font-size: xx-small;">28</text>
    <text x="152" y="58" text-anchor="middle" style="font-family:Arial Narrow; font-size: xx-small;">29</text>
    <text x="168" y="58" text-anchor="middle" style="font-family:Arial Narrow; font-size: xx-small;">30</text>
    <text x="24" y="74" text-anchor="middle" style="font-family:Arial Narrow; font-size: xx-small;">31</text>
    <text x="40" y="74" text-anchor="middle" style="font-family:Arial Narrow; font-size: xx-small;">32</text>
    <text x="56" y="74" text-anchor="middle" style="font-family:Arial Narrow; font-size: xx-small;">33</text>
    <text x="72" y="74" text-anchor="middle" style="font-family:Arial Narrow; font-size: xx-small;">34</text>
    <text x="88" y="74" text-anchor="middle" style="font-family:Arial Narrow; font-size: xx-small;">35</text>
    <text x="104" y="74" text-anchor="middle" style="font-family:Arial Narrow; font-size: xx-small;">36</text>
    <text x="120" y="74" text-anchor="middle" style="font-family:Arial Narrow; font-size: xx-small;">37</text>
    <text x="136" y="74" text-anchor="middle" style="font-family:Arial Narrow; font-size: xx-small;">38</text>
    <text x="152" y="74" text-anchor="middle" style="font-family:Arial Narrow; font-size: xx-small;">39</text>
    <text x="168" y="74" text-anchor="middle" style="font-family:Arial Narrow; font-size: xx-small;">40</text>
    <text x="24" y="90" text-anchor="middle" style="font-family:Arial Narrow; font-size: xx-small;">41</text>
    <text x="40" y="90" text-anchor="middle" style="font-family:Arial Narrow; font-size: xx-small;">42</text>
    <text x="56" y="90" text-anchor="middle" style="font-family:Arial Narrow; font-size: xx-small;">43</text>
    <text x="72" y="90" text-anchor="middle" style="font-family:Arial Narrow; font-size: xx-small;">44</text>
    <text x="88" y="90" text-anchor="middle" style="font-family:Arial Narrow; font-size: xx-small;">45</text>
    <text x="104" y="90" text-anchor="middle" style="font-family:Arial Narrow; font-size: xx-small;">46</text>
    <text x="120" y="90" text-anchor="middle" style="font-family:Arial Narrow; font-size: xx-small;">47</text>
    <text x="136" y="90" text-anchor="middle" style="font-family:Arial Narrow; font-size: xx-small;">48</text>
    <text x="152" y="90" text-anchor="middle" style="font-family:Arial Narrow; font-size: xx-small;">49</text>
    <text x="168" y="90" text-anchor="middle" style="font-family:Arial Narrow; font-size: xx-small;">50</text>
    <text x="24" y="106" text-anchor="middle" style="font-family:Arial Narrow; font-size: xx-small;">51</text>
    <text x="40" y="106" text-anchor="middle" style="font-family:Arial Narrow; font-size: xx-small;">52</text>
    <text x="56" y="106" text-anchor="middle" style="font-family:Arial Narrow; font-size: xx-small;">53</text>
    <text x="72" y="106" text-anchor="middle" style="font-family:Arial Narrow; font-size: xx-small;">54</text>
    <text x="88" y="106" text-anchor="middle" style="font-family:Arial Narrow; font-size: xx-small;">55</text>
    <text x="104" y="106" text-anchor="middle" style="font-family:Arial Narrow; font-size: xx-small;">56</text>
    <text x="120" y="106" text-anchor="middle" style="font-family:Arial Narrow; font-size: xx-small;">57</text>
    <text x="136" y="106" text-anchor="middle" style="font-family:Arial Narrow; font-size: xx-small;">58</text>
    <text x="152" y="106" text-anchor="middle" style="font-family:Arial Narrow; font-size: xx-small;">59</text>
    <text x="168" y="106" text-anchor="middle" style="font-family:Arial Narrow; font-size: xx-small;">60</text>
    <text x="24" y="122" text-anchor="middle" style="font-family:Arial Narrow; font-size: xx-small;">61</text>
    <text x="40" y="122" text-anchor="middle" style="font-family:Arial Narrow; font-size: xx-small;">62</text>
    <text x="56" y="122" text-anchor="middle" style="font-family:Arial Narrow; font-size: xx-small;">63</text>
    <text x="72" y="122" text-anchor="middle" style="font-family:Arial Narrow; font-size: xx-small;">64</text>
    <text x="88" y="122" text-anchor="middle" style="font-family:Arial Narrow; font-size: xx-small;">65</text>
    <text x="104" y="122" text-anchor="middle" style="font-family:Arial Narrow; font-size: xx-small;">66</text>
    <text x="120" y="122" text-anchor="middle" style="font-family:Arial Narrow; font-size: xx-small;">67</text>
    <text x="136" y="122" text-anchor="middle" style="font-family:Arial Narrow; font-size: xx-small;">68</text>
    <text x="152" y="122" text-anchor="middle" style="font-family:Arial Narrow; font-size: xx-small;">69</text>
    <text x="168" y="122" text-anchor="middle" style="font-family:Arial Narrow; font-size: xx-small;">70</text>
    <text x="24" y="138" text-anchor="middle" style="font-family:Arial Narrow; font-size: xx-small;">71</text>
    <text x="40" y="138" text-anchor="middle" style="font-family:Arial Narrow; font-size: xx-small;">72</text>
    <text x="56" y="138" text-anchor="middle" style="font-family:Arial Narrow; font-size: xx-small;">73</text>
    <text x="72" y="138" text-anchor="middle" style="font-family:Arial Narrow; font-size: xx-small;">74</text>
    <text x="88" y="138" text-anchor="middle" style="font-family:Arial Narrow; font-size: xx-small;">75</text>
    <text x="104" y="138" text-anchor="middle" style="font-family:Arial Narrow; font-size: xx-small;">76</text>
    <text x="120" y="138" text-anchor="middle" style="font-family:Arial Narrow; font-size: xx-small;">77</text>
    <text x="136" y="138" text-anchor="middle" style="font-family:Arial Narrow; font-size: xx-small;">78</text>
    <text x="152" y="138" text-anchor="middle" style="font-family:Arial Narrow; font-size: xx-small;">79</text>
    <text x="168" y="138" text-anchor="middle" style="font-family:Arial Narrow; font-size: xx-small;">80</text>
  </g>
</svg>
